<svg width="172" height="60" viewBox="0 0 172 60" fill="none" xmlns="http://www.w3.org/2000/svg">
<path fill-rule="evenodd" clip-rule="evenodd" d="M15.6323 2.32312C15.6323 2.32312 15.6614 2.33179 15.7163 2.34874C17.9694 2.07106 20.6685 2.31616 22.2576 2.51742C33.5237 -0.820172 34.5875 3.56193 36.1151 9.85439L36.1509 10.0019C37.1467 14.1091 36.6582 16.0276 36.158 16.8882C30.4221 16.3806 25.5155 11.3023 23.0761 8.27236C23.0868 8.32127 23.0982 8.37309 23.1101 8.42766C23.5732 10.5441 24.9385 16.7837 26.9897 17.4572C34.8864 21.2603 43.7658 29.5578 43.7658 42.0041C43.7658 51.5463 36.2552 59.9821 25.3402 59.9821C24.5737 60.0165 23.8093 60.0011 23.0515 59.9375C22.5425 59.9318 22.0326 59.9063 21.5228 59.8609C17.2163 59.4774 13.166 57.6893 10.0112 54.7789C6.85632 51.8685 4.7766 48.0015 4.10026 43.7883C3.49486 40.0169 4.04475 36.1604 5.66329 32.7078C5.99587 34.6837 6.60919 36.6405 7.51826 38.5228C7.68819 37.8529 7.89941 37.1909 8.15178 36.5406C9.40318 33.316 11.6024 30.543 14.4554 28.5686C14.1638 28.5959 13.8689 28.6245 13.5716 28.6534C11.5041 28.8541 9.31997 29.0662 7.31917 28.9103L5.87935 30.7052C5.3399 31.3777 4.351 31.4906 3.67058 30.9575C2.99016 30.4243 2.87589 29.4469 3.41534 28.7744L3.93281 28.1293C2.17054 27.3409 0.818215 25.882 0.231122 23.3035C0.202146 23.1762 0.173823 23.0518 0.145148 22.9311C-0.356413 20.824 0.556122 19.4124 1.14735 18.8383C2.68663 17.3436 7.9266 15.8627 7.9266 15.8627C7.9266 15.8627 7.74347 14.0003 7.99399 12.4975C8.05773 12.1152 8.22271 11.5004 8.52545 10.7379C6.12336 12.1864 3.28727 13.3133 0.405223 13.1634C0.0657041 12.322 -0.125091 10.5261 1.31111 6.94221L1.36275 6.8135C3.62308 1.1777 5.17904 -2.70185 15.6323 2.32312ZM11.7711 15.5818C11.1726 15.5818 10.6877 14.7059 10.6877 13.6282C10.6877 12.5495 11.1727 11.6757 11.7711 11.6757C12.3678 11.6757 12.8529 12.5495 12.8529 13.6282C12.8529 14.7059 12.3687 15.5818 11.7711 15.5818ZM17.7969 15.9531C17.1993 15.9531 16.7141 15.0783 16.7141 14.0003C16.7141 12.9215 17.1993 12.0467 17.7969 12.0467C18.3938 12.0467 18.8788 12.9215 18.8788 14.0003C18.8787 15.0783 18.3937 15.9531 17.7969 15.9531ZM9.73282 20.9663C9.73282 21.8245 8.52611 22.5202 7.03757 22.5202C5.54902 22.5202 4.34231 21.8245 4.34231 20.9663C4.34231 20.1081 5.54902 19.4124 7.03757 19.4124C8.52611 19.4124 9.73282 20.1081 9.73282 20.9663Z" fill="white"/>
<path d="M66.0633 43.6121C65.0483 43.6121 64.1034 43.5084 63.2284 43.3008C62.3885 43.1279 61.6185 42.903 60.9185 42.6263V52.1733C60.6035 52.2425 60.1836 52.3289 59.6586 52.4327C59.1336 52.5365 58.5386 52.5884 57.8737 52.5884C56.6487 52.5884 55.7388 52.3635 55.1438 51.9139C54.5488 51.4642 54.2513 50.6686 54.2513 49.5271V23.221C54.2513 22.3908 54.4088 21.7163 54.7238 21.1975C55.0738 20.6786 55.6163 20.1943 56.3512 19.7447C57.3662 19.1566 58.6261 18.6551 60.1311 18.24C61.636 17.7903 63.3334 17.5655 65.2233 17.5655C67.1482 17.5655 68.9157 17.8249 70.5256 18.3437C72.1705 18.828 73.5879 19.6063 74.7779 20.6786C75.9678 21.7163 76.8953 23.0481 77.5602 24.6738C78.2252 26.2996 78.5577 28.2366 78.5577 30.485C78.5577 32.6642 78.2427 34.5667 77.6127 36.1925C76.9828 37.8182 76.1078 39.1845 74.9879 40.2914C73.9029 41.3983 72.5905 42.2285 71.0506 42.782C69.5456 43.3354 67.8832 43.6121 66.0633 43.6121ZM65.0658 38.3717C67.1657 38.3717 68.8107 37.7317 70.0006 36.4519C71.1905 35.172 71.7855 33.1831 71.7855 30.485C71.7855 27.6832 71.173 25.6942 69.9481 24.5182C68.7232 23.3421 67.1482 22.754 65.2233 22.754C64.2784 22.754 63.4384 22.8751 62.7034 23.1172C62.0035 23.3594 61.391 23.6188 60.866 23.8955V37.2302C61.426 37.5761 62.0385 37.8528 62.7034 38.0604C63.4034 38.2679 64.1909 38.3717 65.0658 38.3717Z" fill="white"/>
<path d="M87.2936 33.5463C87.7836 35.3104 88.6935 36.5903 90.0235 37.3858C91.3534 38.1814 92.9983 38.5792 94.9583 38.5792C96.4282 38.5792 97.7756 38.3717 99.0006 37.9566C100.261 37.5069 101.275 37.0399 102.045 36.5557C102.535 36.8324 102.938 37.2129 103.253 37.6972C103.568 38.1814 103.725 38.7003 103.725 39.2537C103.725 39.9455 103.48 40.5682 102.99 41.1216C102.535 41.6405 101.888 42.0901 101.048 42.4706C100.243 42.8511 99.2806 43.1452 98.1606 43.3527C97.0407 43.5602 95.8332 43.664 94.5383 43.664C92.4734 43.664 90.5835 43.3873 88.8685 42.8338C87.1886 42.2804 85.7362 41.4502 84.5112 40.3433C83.3213 39.2018 82.3763 37.8009 81.6764 36.1406C81.0114 34.4802 80.6789 32.5432 80.6789 30.3294C80.6789 28.1848 81.0114 26.3169 81.6764 24.7257C82.3413 23.1345 83.2338 21.8028 84.3538 20.7305C85.5087 19.6582 86.8386 18.8626 88.3436 18.3437C89.8485 17.8249 91.4409 17.5655 93.1208 17.5655C94.8358 17.5655 96.4107 17.8422 97.8456 18.3956C99.2805 18.9145 100.505 19.6582 101.52 20.6267C102.535 21.5607 103.323 22.7022 103.883 24.0512C104.478 25.3656 104.775 26.8011 104.775 28.3577C104.775 29.3262 104.513 30.0526 103.988 30.5369C103.498 31.0212 102.798 31.3325 101.888 31.4709L87.2936 33.5463ZM93.1208 22.4946C91.4059 22.4946 89.971 23.0654 88.816 24.2068C87.6611 25.3137 87.0136 26.9049 86.8736 28.9803L98.5281 27.2681C98.3881 25.9883 97.8806 24.8814 97.0057 23.9474C96.1307 22.9789 94.8358 22.4946 93.1208 22.4946Z" fill="white"/>
<path d="M114.497 35.2585C114.497 36.3654 114.829 37.161 115.494 37.6453C116.194 38.1295 117.157 38.3717 118.382 38.3717C118.977 38.3717 119.572 38.3025 120.166 38.1641C120.796 38.0258 121.356 37.8528 121.846 37.6453C122.126 37.922 122.354 38.2679 122.529 38.683C122.739 39.0635 122.844 39.5132 122.844 40.032C122.844 41.0697 122.371 41.9345 121.426 42.6263C120.481 43.2835 118.959 43.6121 116.859 43.6121C114.094 43.6121 111.907 43.0068 110.297 41.7961C108.722 40.5509 107.935 38.51 107.935 35.6736V11.858C108.215 11.7888 108.617 11.7024 109.142 11.5986C109.702 11.4948 110.297 11.4429 110.927 11.4429C112.152 11.4429 113.044 11.6678 113.604 12.1174C114.199 12.5671 114.497 13.3627 114.497 14.5042V18.8107H122.214C122.389 19.0874 122.546 19.4506 122.686 19.9003C122.826 20.35 122.896 20.8343 122.896 21.3531C122.896 22.2525 122.686 22.9097 122.266 23.3248C121.846 23.7399 121.286 23.9474 120.586 23.9474H114.497V35.2585Z" fill="white"/>
<path d="M138.329 22.8059C137.279 22.8059 136.3 22.9789 135.39 23.3248C134.515 23.6707 133.745 24.1723 133.08 24.8295C132.45 25.4867 131.942 26.2996 131.557 27.2681C131.172 28.2366 130.98 29.3608 130.98 30.6407C130.98 33.2004 131.662 35.1375 133.027 36.4519C134.392 37.7317 136.16 38.3717 138.329 38.3717C139.554 38.3717 140.604 38.216 141.479 37.9047C142.389 37.5588 143.194 37.1956 143.894 36.8151C144.384 37.161 144.769 37.5588 145.049 38.0085C145.364 38.4581 145.522 38.977 145.522 39.565C145.522 40.7411 144.822 41.7097 143.422 42.4706C142.022 43.2316 140.132 43.6121 137.752 43.6121C135.757 43.6121 133.92 43.3527 132.24 42.8338C130.595 42.2804 129.177 41.4675 127.987 40.3952C126.797 39.2883 125.87 37.922 125.205 36.2962C124.575 34.6705 124.26 32.7853 124.26 30.6407C124.26 28.4615 124.61 26.559 125.31 24.9332C126.01 23.2729 126.955 21.9066 128.145 20.8343C129.37 19.7274 130.787 18.9145 132.397 18.3956C134.007 17.8422 135.722 17.5655 137.542 17.5655C139.887 17.5655 141.759 17.9805 143.159 18.8107C144.559 19.6063 145.259 20.5921 145.259 21.7682C145.259 22.3217 145.102 22.8232 144.787 23.2729C144.507 23.7226 144.174 24.0858 143.789 24.3625C143.089 23.982 142.302 23.6361 141.427 23.3248C140.587 22.9789 139.554 22.8059 138.329 22.8059Z" fill="white"/>
<path d="M155.568 42.8338C155.253 42.903 154.833 42.9895 154.308 43.0933C153.783 43.197 153.188 43.2489 152.523 43.2489C151.298 43.2489 150.389 43.0241 149.794 42.5744C149.199 42.1247 148.901 41.3292 148.901 40.1877V9.15996C149.181 9.05619 149.584 8.96971 150.109 8.90053C150.669 8.79676 151.281 8.74487 151.946 8.74487C153.171 8.74487 154.081 8.96971 154.676 9.41939C155.271 9.86907 155.568 10.6646 155.568 11.8061V18.9664C156.338 18.5859 157.213 18.2573 158.193 17.9805C159.208 17.7038 160.328 17.5655 161.553 17.5655C164.738 17.5655 167.275 18.3783 169.165 20.0041C171.055 21.6298 172 24.0858 172 27.3719V42.8338C171.72 42.903 171.3 42.9895 170.74 43.0933C170.215 43.197 169.638 43.2489 169.008 43.2489C167.748 43.2489 166.82 43.0241 166.225 42.5744C165.63 42.1247 165.333 41.3292 165.333 40.1877V27.6832C165.333 25.9537 164.878 24.7084 163.968 23.9474C163.058 23.1518 161.868 22.754 160.398 22.754C159.453 22.754 158.578 22.9097 157.773 23.221C156.968 23.4977 156.233 23.8436 155.568 24.2587V42.8338Z" fill="white"/>
</svg>
